<svg width="152" height="92" viewBox="0 0 152 92" fill="none" xmlns="http://www.w3.org/2000/svg">
<path d="M70.0908 46.3553L71.954 42.456L68.2835 39.3739L64.7402 41.9028C63.3827 41.1445 61.9374 40.5558 60.4365 40.1497L59.7218 35.8197L54.948 35.402L53.4741 39.5717C50.8431 39.8417 48.2977 40.6595 46.0018 41.9725L42.3642 39.3452L38.6809 42.4359L40.6625 46.5053C39.7052 47.6769 38.8919 48.9591 38.24 50.3245L33.7111 50.2555L32.4697 54.8845L36.4348 57.0937C36.3154 58.5984 36.3748 60.112 36.6118 61.6027L32.8568 64.1468L34.4964 68.6513L38.9885 68.1923C39.527 69.1133 40.1422 69.9874 40.8274 70.8051C41.1191 71.1527 41.4228 71.4806 41.735 71.8014L40.1329 76.0119L44.0586 78.7605L47.4324 75.8531C48.8316 76.4999 50.3042 76.9742 51.8179 77.2653L52.9101 81.5556L57.6937 81.5638L58.7719 77.3153C60.3052 77.0415 61.7995 76.5817 63.2215 75.9462L66.5384 78.7662L70.4646 76.0162L68.9488 71.9668C70.0595 70.8521 71.0273 69.6036 71.8298 68.25L76.1055 68.6605L77.7465 64.1547L74.2163 61.7238C74.4813 60.1672 74.5517 58.5838 74.4262 57.0098L78.1592 54.8949L76.9174 50.2668L72.6375 50.2897C71.9554 48.8775 71.0999 47.5558 70.0908 46.3553ZM64.6094 50.8497C66.1311 52.6632 67.0808 54.8872 67.3386 57.2404C67.5963 59.5937 67.1504 61.9705 66.0573 64.0704C64.9642 66.1702 63.2729 67.8988 61.1974 69.0374C59.1219 70.1761 56.7554 70.6737 54.397 70.4674C52.0387 70.2611 49.7945 69.3601 47.9483 67.8783C46.102 66.3965 44.7367 64.4005 44.0248 62.1428C43.3129 59.885 43.2865 57.4669 43.949 55.1941C44.6114 52.9213 45.933 50.8961 47.7464 49.3744C50.1786 47.3348 53.3212 46.3445 56.4833 46.6211C59.6454 46.8978 62.5683 48.4187 64.6094 50.8497Z" fill="white"/>
<path d="M42.001 31.8296L45.9347 30.0366L45.1041 25.3161L40.7642 24.9795C40.2117 23.5261 39.483 22.146 38.5942 20.8701L40.8301 17.0937L37.4416 13.7016L33.6323 15.963C31.4435 14.4775 28.968 13.4667 26.365 12.9954L25.2672 8.64816H20.4589L19.3612 13.0393C17.8747 13.3215 16.4275 13.7809 15.0505 14.4078L11.6255 11.4438L7.69909 14.1919L9.31649 18.433C8.2601 19.5104 7.33517 20.7093 6.56106 22.0045L2.05285 21.5251L0.413498 26.0297L4.1496 28.5655C3.9703 29.616 3.87972 30.6797 3.87882 31.7454C3.87882 32.1992 3.90077 32.6493 3.93371 33.0957L0 35.2913L1.24049 39.9239L5.69381 39.8653C6.34636 41.2551 7.16599 42.5601 8.13454 43.7515L6.21343 47.7437L9.87269 50.8248L13.4295 48.2633C14.7795 49.0395 16.2199 49.6467 17.7181 50.071L18.4463 54.3853L23.2217 54.8061L24.6634 50.726C26.2308 50.5861 27.7746 50.2517 29.2595 49.7307L32.271 52.7935L36.4243 50.3967L35.2826 46.2654C36.4861 45.2432 37.5579 44.0755 38.4735 42.7891L42.6926 43.5685L44.7162 39.2213L41.4229 36.4915C41.809 34.9677 42.0033 33.4016 42.001 31.8296ZM34.913 31.7454C34.913 34.1128 34.211 36.4269 32.8958 38.3953C31.5806 40.3637 29.7112 41.8978 27.5241 42.8038C25.337 43.7097 22.9303 43.9467 20.6085 43.4849C18.2866 43.023 16.1539 41.8831 14.4799 40.2091C12.8059 38.5351 11.666 36.4024 11.2041 34.0805C10.7423 31.7587 10.9793 29.3521 11.8853 27.1649C12.7912 24.9778 14.3253 23.1084 16.2937 21.7932C18.2621 20.478 20.5762 19.776 22.9436 19.776C26.1181 19.776 29.1625 21.037 31.4073 23.2818C33.652 25.5265 34.913 28.5709 34.913 31.7454Z" fill="#002EFF"/>
<path d="M134.055 47.3357L135.916 43.4336L132.242 40.3538L128.696 42.8902C127.342 42.1369 125.902 41.5504 124.407 41.1436L123.69 36.8108L118.916 36.3931L117.455 40.5717C114.822 40.8415 112.275 41.6591 109.977 42.972L106.342 40.3475L102.67 43.4288L104.651 47.4982C103.694 48.6695 102.88 49.9518 102.229 51.3174L97.6947 51.248L96.4557 55.8798L100.421 58.089C100.306 59.5927 100.369 61.1047 100.609 62.5937L96.8507 65.1402L98.4904 69.6447L102.972 69.1614C103.512 70.0797 104.127 70.9518 104.811 71.769C105.103 72.1166 105.409 72.4473 105.716 72.7677L104.116 76.9758L108.021 79.7329L111.392 76.8278C112.786 77.4709 114.254 77.9429 115.762 78.2336L116.857 82.5267L121.64 82.5348L122.721 78.284C124.259 78.0196 125.758 77.5644 127.183 76.9289L130.502 79.7466L134.415 77.0083L132.905 72.9725C134.015 71.8571 134.983 70.6087 135.786 69.2557L140.062 69.661L141.701 65.1576L138.176 62.7272C138.439 61.1704 138.51 59.5871 138.385 58.0131L142.13 55.8888L140.891 51.2584L136.611 51.2813C135.924 49.8662 135.065 48.541 134.055 47.3357ZM128.56 51.8367C130.084 53.6495 131.036 55.8736 131.295 58.2276C131.555 60.5816 131.11 62.9597 130.017 65.0609C128.925 67.1621 127.233 68.8919 125.157 70.0315C123.081 71.1711 120.714 71.6692 118.354 71.4628C115.995 71.2564 113.75 70.3547 111.904 68.8719C110.057 67.3892 108.692 65.3919 107.981 63.1329C107.269 60.8739 107.244 58.4548 107.909 56.1816C108.573 53.9084 109.897 51.8833 111.712 50.3627C114.143 48.3259 117.282 47.3371 120.441 47.6135C123.6 47.8898 126.52 49.4088 128.56 51.8367Z" fill="white"/>
<path d="M110.735 23.5259L114.46 21.3315L113.137 16.7241L108.778 16.8437C108.074 15.4557 107.204 14.1584 106.187 12.9805L108.015 8.99109L104.291 5.97537L100.743 8.6222C98.4095 7.3737 95.8407 6.62725 93.2016 6.43082L91.6554 2.22218L86.888 2.72325L86.2552 7.20506C84.8063 7.64053 83.4149 8.24879 82.1113 9.01671L78.3912 6.4237L74.7739 9.57081L76.8257 13.6196C75.8892 14.8017 75.0959 16.0905 74.4624 17.4591L69.923 17.4689L68.7645 22.0943L72.7624 24.2497C72.6971 25.3144 72.7195 26.3827 72.8295 27.4437C72.8769 27.895 72.9454 28.3367 73.0212 28.7776L69.3422 31.372L71.0368 35.8373L75.4563 35.3176C76.2539 36.6301 77.2065 37.8419 78.2935 38.9269L76.8002 43.0981L80.7615 45.7798L84.0347 42.8602C85.4588 43.4913 86.9547 43.9457 88.4892 44.2133L89.6657 48.4056L94.4403 48.3233L95.4569 44.1323C97.0012 43.83 98.5018 43.3361 99.9237 42.662L103.243 45.3928L107.119 42.5754L105.556 38.5893C106.644 37.4453 107.587 36.1722 108.366 34.7985L112.648 35.1432L114.21 30.6115L110.649 28.2373C110.871 26.6763 110.9 25.094 110.735 23.5259ZM103.663 24.1846C103.91 26.539 103.454 28.9139 102.352 31.0089C101.249 33.104 99.5506 34.8252 97.4701 35.9548C95.3897 37.0843 93.021 37.5716 90.6636 37.355C88.3062 37.1384 86.0659 36.2276 84.2262 34.7378C82.3864 33.248 81.0298 31.2461 80.3277 28.9852C79.6257 26.7244 79.6099 24.3061 80.2823 22.0363C80.9546 19.7664 82.285 17.7469 84.1051 16.2332C85.9252 14.7194 88.1533 13.7794 90.5077 13.5319C92.071 13.3671 93.6515 13.512 95.1588 13.9582C96.6661 14.4045 98.0707 15.1433 99.2924 16.1326C100.514 17.1219 101.529 18.3422 102.279 19.7238C103.029 21.1054 103.499 22.6212 103.663 24.1846Z" fill="#002EFF"/>
<rect x="17.1757" y="23.6769" width="128.818" height="38.6453" fill="#08051F"/>
<path d="M19.1406 52.8239V30.6395H22.0879L26.4931 44.172L30.8982 30.6395H33.8456V52.8239H30.8982V39.64L27.9509 48.6722H25.0353L22.0879 39.64V52.8239H19.1406ZM36.1935 52.8239V30.6395H47.9829V33.5552H39.1409V39.0696H45.0355L44.37 42.0169H39.1409V49.8765H47.9829V52.8239H36.1935ZM52.6191 52.8239C52.0275 52.8239 51.4993 52.602 51.0345 52.1583C50.5697 51.7146 50.3373 51.1759 50.3373 50.542V32.9214C50.3373 32.3086 50.5697 31.7804 51.0345 31.3368C51.4993 30.8719 52.0275 30.6395 52.6191 30.6395H59.8131C60.4681 30.6395 61.0069 30.8719 61.4294 31.3368C61.8731 31.7804 62.0949 32.3086 62.0949 32.9214V37.0413L59.1476 37.7068V34.7278C59.1476 34.432 59.042 34.1679 58.8307 33.9355C58.6405 33.7031 58.3764 33.5869 58.0384 33.5869H54.4255C54.1297 33.5869 53.8656 33.7031 53.6332 33.9355C53.4008 34.1679 53.2846 34.432 53.2846 34.7278V48.7356C53.2846 49.0736 53.4008 49.3483 53.6332 49.5596C53.8656 49.7709 54.1297 49.8765 54.4255 49.8765H58.0384C58.3764 49.8765 58.6405 49.7709 58.8307 49.5596C59.042 49.3483 59.1476 49.0736 59.1476 48.7356V46.4221L62.0949 45.7249V50.542C62.0949 51.1759 61.8731 51.7146 61.4294 52.1583C61.0069 52.602 60.4681 52.8239 59.8131 52.8239H52.6191ZM64.7595 52.8239V30.6395H67.7069V39.0696H73.6016V30.6395H76.5172V52.8239H73.6016V42.0169H67.7069V52.8239H64.7595ZM79.4279 52.8239V30.6078H87.4777C88.1326 30.6078 88.6819 30.8403 89.1256 31.3051C89.5693 31.7488 89.7912 32.277 89.7912 32.8897V39.1963C90.2137 39.3442 90.5623 39.6189 90.837 40.0203C91.1117 40.4218 91.249 40.8549 91.249 41.3197V50.5103C91.249 51.1653 91.0271 51.7146 90.5835 52.1583C90.1398 52.602 89.601 52.8239 88.9672 52.8239H79.4279ZM82.407 39.0696H85.6712C85.9881 39.0696 86.2628 38.9534 86.4952 38.721C86.7276 38.4886 86.8438 38.2245 86.8438 37.9287V34.6961C86.8438 34.3792 86.7276 34.1151 86.4952 33.9038C86.2628 33.6714 85.9881 33.5552 85.6712 33.5552H82.407V39.0696ZM82.407 49.8765H87.1924C87.4882 49.8765 87.7418 49.7709 87.953 49.5596C88.1854 49.3272 88.3016 49.042 88.3016 48.7039V43.1261C88.3016 42.8303 88.1854 42.5662 87.953 42.3338C87.7418 42.1014 87.4882 41.9852 87.1924 41.9852H82.407V49.8765ZM97.339 52.8239C96.7474 52.8239 96.2298 52.602 95.7861 52.1583C95.3424 51.7146 95.1206 51.1653 95.1206 50.5103V32.953C95.1206 32.2981 95.3424 31.7488 95.7861 31.3051C96.2298 30.8614 96.7474 30.6395 97.339 30.6395H104.533C105.209 30.6395 105.758 30.8614 106.181 31.3051C106.625 31.7488 106.847 32.2981 106.847 32.953V50.5103C106.847 51.1653 106.625 51.7146 106.181 52.1583C105.758 52.602 105.209 52.8239 104.533 52.8239H97.339ZM99.1455 49.9082H102.727C103.086 49.9082 103.371 49.792 103.582 49.5596C103.815 49.3272 103.931 49.042 103.931 48.7039V34.7595C103.931 34.4003 103.815 34.1151 103.582 33.9038C103.371 33.6714 103.086 33.5552 102.727 33.5552H99.1455C98.8497 33.5552 98.5856 33.6714 98.3532 33.9038C98.1419 34.1151 98.0362 34.4003 98.0362 34.7595V48.7039C98.0362 49.042 98.1419 49.3272 98.3532 49.5596C98.5856 49.792 98.8497 49.9082 99.1455 49.9082ZM112.831 52.8239V33.5869H108.426V30.6395H120.183V33.5869H115.778V52.8239H112.831ZM124.327 52.8239C123.693 52.8239 123.154 52.602 122.71 52.1583C122.267 51.7146 122.045 51.1759 122.045 50.542V45.6298L124.992 46.2953V48.7356C124.992 49.0525 125.098 49.3272 125.309 49.5596C125.541 49.7709 125.806 49.8765 126.101 49.8765H129.714C130.031 49.8765 130.295 49.7709 130.507 49.5596C130.739 49.3272 130.855 49.0525 130.855 48.7356V43.1578C130.855 42.8409 130.739 42.5768 130.507 42.3655C130.295 42.1331 130.031 42.0169 129.714 42.0169H124.327C123.693 42.0169 123.154 41.7951 122.71 41.3514C122.267 40.9077 122.045 40.3689 122.045 39.7351V32.9214C122.045 32.2875 122.267 31.7488 122.71 31.3051C123.154 30.8614 123.693 30.6395 124.327 30.6395H131.521C132.155 30.6395 132.693 30.8614 133.137 31.3051C133.581 31.7488 133.803 32.2875 133.803 32.9214V36.3441L130.855 35.6469V34.7278C130.855 34.4109 130.739 34.1468 130.507 33.9355C130.295 33.7031 130.031 33.5869 129.714 33.5869H126.101C125.806 33.5869 125.541 33.7031 125.309 33.9355C125.098 34.1468 124.992 34.4109 124.992 34.7278V37.9287C124.992 38.2456 125.098 38.5203 125.309 38.7527C125.541 38.9639 125.806 39.0696 126.101 39.0696H131.521C132.155 39.0696 132.693 39.2914 133.137 39.7351C133.581 40.1788 133.803 40.7176 133.803 41.3514V50.542C133.803 51.1759 133.581 51.7146 133.137 52.1583C132.693 52.602 132.155 52.8239 131.521 52.8239H124.327Z" fill="#002BEE"/>
</svg>
